<svg xmlns="http://www.w3.org/2000/svg" width="1100" height="850" viewBox="0 0 1100 850"><rect width="1100" height="850" fill="#ffffff"/><rect x="20" y="20" width="1060" height="810" fill="none" stroke="#1a1a1a" stroke-width="2"/><rect x="220.0" y="150.0" width="564.0" height="470.0" fill="#fbf7ef" stroke="#1a1a1a" stroke-width="2.0"/>
<rect x="220.0" y="150.0" width="564.0" height="188.0" fill="#e3cf9c" stroke="#1a1a1a" stroke-width="1.4"/>
<text x="502.0" y="248.0" font-size="11" font-family="Helvetica,Arial,sans-serif" text-anchor="middle" fill="#1a1a1a" font-weight="normal">UPPER BENCH (36")</text>
<rect x="220.0" y="338.0" width="564.0" height="141.0" fill="#efe1c0" stroke="#1a1a1a" stroke-width="1.4"/>
<text x="502.0" y="412.5" font-size="11" font-family="Helvetica,Arial,sans-serif" text-anchor="middle" fill="#1a1a1a" font-weight="normal">LOWER BENCH (18")</text>
<rect x="650.6" y="532.9" width="123.4" height="77.1" fill="#cd966a" stroke="#1a1a1a" stroke-width="1.4"/>
<text x="712.3" y="575.5" font-size="10.5" font-family="Helvetica,Arial,sans-serif" text-anchor="middle" fill="#1a1a1a" font-weight="normal">HEATER</text>
<rect x="704.3" y="614.0" width="16.0" height="6.0" fill="#b03a2e" stroke="#1a1a1a" stroke-width="1.4"/>
<text x="712.3" y="638.0" font-size="10" font-family="Helvetica,Arial,sans-serif" text-anchor="middle" fill="#b03a2e" font-weight="normal">intake</text>
<rect x="214.0" y="560.0" width="6.0" height="16.0" fill="#b03a2e" stroke="#1a1a1a" stroke-width="1.4"/>
<text x="210.0" y="556.0" font-size="10" font-family="Helvetica,Arial,sans-serif" text-anchor="end" fill="#b03a2e" font-weight="normal">exhaust</text>
<polyline points="712.3,602.0 250.0,576.0" fill="none" stroke="#9aa0a6" stroke-width="1.2" stroke-dasharray="5 4"/>
<line x1="250.0" y1="620.0" x2="438.0" y2="620.0" stroke="#ffffff" stroke-width="4.0"/>
<line x1="250.0" y1="620.0" x2="250.0" y2="808.0" stroke="#1a1a1a" stroke-width="2.0"/>
<path d="M 438.0 620.0 A 188.0 188.0 0 0 1 250.0 808.0" fill="none" stroke="#9aa0a6" stroke-width="1.0" stroke-dasharray="4 3"/>
<text x="444.0" y="808.0" font-size="10.5" font-family="Helvetica,Arial,sans-serif" text-anchor="start" fill="#1a1a1a" font-weight="normal">DOOR (outswing, 24")</text>
<line x1="220.0" y1="126.0" x2="784.0" y2="126.0" stroke="#1a1a1a" stroke-width="1.0"/>
<line x1="215.0" y1="131.0" x2="225.0" y2="121.0" stroke="#1a1a1a" stroke-width="1.2"/>
<line x1="779.0" y1="131.0" x2="789.0" y2="121.0" stroke="#1a1a1a" stroke-width="1.2"/>
<text x="502.0" y="120.0" font-size="12" font-family="Helvetica,Arial,sans-serif" text-anchor="middle" fill="#1a1a1a" font-weight="normal">1829 mm (72.00")</text>
<line x1="180.0" y1="150.0" x2="180.0" y2="620.0" stroke="#1a1a1a" stroke-width="1.0"/>
<line x1="175.0" y1="145.0" x2="185.0" y2="155.0" stroke="#1a1a1a" stroke-width="1.2"/>
<line x1="175.0" y1="615.0" x2="185.0" y2="625.0" stroke="#1a1a1a" stroke-width="1.2"/>
<text x="186.0" y="389.0" font-size="12" font-family="Helvetica,Arial,sans-serif" text-anchor="start" fill="#1a1a1a" font-weight="normal">1524 mm (60.00")</text><line x1="40" y1="780" x2="1060" y2="780" stroke="#1a1a1a" stroke-width="1.4"/><text x="40" y="804" font-size="18" font-family="Helvetica,Arial" font-weight="bold" fill="#1a1a1a">FLOOR PLAN — outdoor-reference (6x5x7 ft)</text><text x="40" y="822" font-size="12" font-family="Helvetica,Arial" fill="#9aa0a6">interior 1829 x 1524 mm  ·  ceiling 2134 mm  ·  plan view</text><text x="1060" y="804" font-size="18" font-family="Helvetica,Arial" font-weight="bold" text-anchor="end" fill="#b03a2e">A-0</text><text x="1060" y="822" font-size="11" font-family="Helvetica,Arial" text-anchor="end" fill="#9aa0a6">NOT TO SCALE — do not measure print; use figured dims · generated by sauna_engine</text></svg>